<svg width="443" height="89" viewBox="0 0 443 89" fill="none" xmlns="http://www.w3.org/2000/svg">
<g clip-path="url(#clip0_3571_717)">
<path d="M323.3 44.31C323.3 44.63 323.3 44.95 323.29 45.26C322.86 63.2 310.04 78.06 293.06 81.64L292.28 81.75L292.33 88.08L276.22 71.97L283.79 66.48L295.77 57.79L294.3 64.39L295.04 64.19C300.73 61.36 305.03 56.16 306.66 49.89C307.12 48.1 307.36 46.23 307.36 44.31C307.36 43.07 307.26 41.86 307.06 40.67C305.92 33.71 301.52 27.83 295.49 24.65L299.66 21.62L304.54 18.09L293.53 7.07999C296.84 7.81999 299.99 8.98999 302.9 10.53C305.14 11.71 307.25 13.11 309.2 14.7C314.35 18.88 318.39 24.39 320.79 30.7C321.44 32.39 321.97 34.13 322.37 35.92C322.54 36.67 322.68 37.41 322.8 38.17C323.13 40.17 323.29 42.22 323.29 44.3L323.3 44.31Z" fill="#14CD92"/>
<path d="M273.04 31.13L274.95 24.08L273.8 24.4C268.01 27.29 263.66 32.62 262.1 39.05C261.69 40.73 261.48 42.49 261.48 44.3C261.48 45.57 261.59 46.81 261.79 48.02C262.96 54.98 267.38 60.84 273.42 63.99L269.58 66.78L264.82 70.23L270 75.41L276.33 81.74C272.73 81.04 269.32 79.83 266.16 78.19C263.86 77 261.69 75.58 259.69 73.96C254.53 69.78 250.48 64.28 248.07 57.98C247.29 55.95 246.68 53.84 246.25 51.66C246.18 51.34 246.13 51.01 246.08 50.68C245.73 48.61 245.54 46.47 245.54 44.3C245.54 43.79 245.54 43.28 245.58 42.77C246.27 25.09 258.99 10.5 275.79 6.95999L276.94 6.72999L276.59 -0.0100098L293.14 16.54L285.41 22.14L273.04 31.12V31.13Z" fill="#14CD92"/>
<path d="M426.09 81.88L411.25 56.75H404.14V81.88H389.4V8.20001H418.46C444.74 8.20001 447.31 48.2 425.67 54.48L442.78 81.88H426.09ZM404.14 42.43H417.12C427.12 42.43 427.12 22.94 417.12 22.94H404.14V42.43Z" fill="#14CD92"/>
<path d="M94.8299 60.14L87.9799 40.97L80.9099 60.14H94.8299ZM87.9199 6.95001L120.46 81.88H103.48L100.42 73.95H75.4299L72.4799 81.88H55.3999L87.9199 6.95001Z" fill="#14CD92"/>
<path d="M358.08 60.14L351.23 40.97L344.16 60.14H358.08ZM351.17 6.95001L383.71 81.88H366.73L363.67 73.95H338.68L335.73 81.88H318.65L351.17 6.95001Z" fill="#14CD92"/>
<path d="M141.22 8.20001V67.15H171.16V81.89H126.13V8.20001H141.21H141.22Z" fill="#14CD92"/>
<path d="M195.35 22.94V67.15H202.73C232.05 67.15 232.05 22.94 202.73 22.94H195.35ZM202.73 81.89H180.27V8.20001H202.73C252.93 8.20001 252.93 81.88 202.73 81.88V81.89Z" fill="#14CD92"/>
<path d="M54.79 58.56C53.74 45.28 41.01 40 31.52 37.18C19.46 33.6 19.21 29.84 19.07 27.84C18.87 25.05 21.11 22.37 23.43 21.16C24.41 20.65 25.93 20.37 27.71 20.37C32.06 20.37 37.3 21.97 41.39 24.55L42.31 25.13L49.22 10.83L48.45 10.37C42.43 6.77999 36.06 4.95999 29.53 4.95999C23.84 4.95999 19.02 6.41999 16.4 7.78999C8.97998 11.66 4.00998 19.09 3.43998 27.17C3.00998 33.19 4.88998 38.42 9.00998 42.7C13.24 47.09 19.15 50.26 26.58 52.12C34.9 54.2 37.38 57.15 38 59.26C38.59 61.27 37.66 63.21 36.68 64.25C34.77 66.28 31.52 67.25 27.42 67.07C20.38 66.73 10.96 62.3 7.14998 59.36L6.13998 58.58L-0.0200195 73.28L0.62998 73.73C8.50998 79.21 17.17 82.22 26.36 82.65C26.94 82.68 27.51 82.69 28.09 82.69C36.03 82.69 43.15 79.98 48.15 75.05C52.76 70.5 55.24 64.34 54.78 58.57L54.79 58.56Z" fill="#14CD92"/>
</g>
<defs>
<clipPath id="clip0_3571_717">
<rect width="442.78" height="88.07" fill="white"/>
</clipPath>
</defs>
</svg>
